<svg xmlns="http://www.w3.org/2000/svg" xmlns:svg="http://www.w3.org/2000/svg" id="Layer_1" x="0" y="0" version="1.1" viewBox="0 0 346 68" xml:space="preserve" style="enable-background:new 0 0 346 68"><metadata id="metadata13"/><g id="g3"><path style="fill:#fff" id="path5" d="M33,41.5V19H23v21.1c-1,1.9-2.3,3.2-3.6,3.9c-1.3,0.8-2.7,1.1-4.2,1.1c-1.5,0-2.4-0.6-3.3-1.7 c-0.8-1.1-1-2.7-1-4.9V19H0v21.9c0,4.3,0.8,7.6,2.7,9.8c1.9,2.2,4.5,3.3,8,3.3c2.9,0,5.5-0.5,7.9-1.6c2.4-1.1,4.3-2.8,5.9-5.1 l0.2,2.1c0.6,2.9,2.7,4.4,6.4,4.4c0.6,0,1.3,0,2.1-0.1c0.8-0.1,1.8-0.2,2.8-0.4v-8.9c-1-0.1-1.9-0.3-2.3-0.8 C33.3,43.3,33,42.6,33,41.5z M70.4,23.2c-1.4-1.6-3.1-2.9-5.1-3.8c-2-0.9-4.1-1.4-6.5-1.4c-2.6,0-5.5,0.6-7.4,1.7 c-1.9,1.1-2.3,2.6-5.3,4.6V19h-8v49h11V47.8c1,2,2.4,3.5,4.3,4.6c1.9,1.1,4.1,1.7,6.8,1.7c2.2,0,4.1-0.5,5.9-1.4 c1.8-0.9,3.4-2.2,4.7-3.8c1.3-1.6,2.4-3.5,3.1-5.7c0.7-2.2,1.1-4.6,1.1-7.2c0-2.5-0.4-4.9-1.2-7C72.9,26.7,71.8,24.8,70.4,23.2z M63.5,39.4c-0.4,1.1-0.9,2.1-1.6,2.9c-0.7,0.8-1.5,1.5-2.5,2c-0.9,0.5-2,0.8-3.1,0.8c-1.6,0-2.9-0.6-4.3-1.8c-1.4-1.2-3-2.7-3-4.4 v-7.1c0-1.5,1.5-2.6,2.9-3.5c1.3-0.9,2.6-1.3,4-1.3c1.2,0,2.3,0.2,3.3,0.7c1,0.4,1.9,1.1,2.6,1.9c0.7,0.8,1.3,1.7,1.7,2.8 c0.4,1.1,0.6,2.3,0.6,3.5C64.1,37.1,63.9,38.3,63.5,39.4z M234,23.5c-1.6-1.7-3.5-3-5.8-4c-2.3-1-4.9-1.5-7.9-1.5 c-3,0-5.6,0.5-7.9,1.5c-2.3,1-4.3,2.3-5.9,4c-1.6,1.7-2.8,3.6-3.6,5.8c-0.8,2.2-1.2,4.5-1.2,6.8c0,2.4,0.4,4.7,1.2,6.8 c0.8,2.2,2,4.1,3.6,5.8c1.6,1.7,3.5,3,5.9,3.9c0.5,0.2,0.9,0.4,1.4,0.5l5.7-8c-1.9-0.2-3.5-1-4.8-2.4c-1.5-1.7-2.2-3.8-2.2-6.6 c0-1.3,0.2-2.5,0.6-3.7c0.4-1.1,0.9-2.1,1.6-2.9c0.7-0.8,1.5-1.4,2.4-1.9c0.9-0.4,2-0.7,3.1-0.7c2.2,0,4,0.8,5.5,2.5 c1,1.1,1.6,2.4,1.9,4l6.8-9.5C234.4,23.8,234.2,23.6,234,23.5z M188,16h11V5h-11V16z M175,18.2c0,0-0.8-0.1-1.6-0.1 c-2.1,0.1-4,0.8-5.8,2.1c-1.9,1.3-4.5,3.1-4.5,5.5V19h-10v35h10V32.6c1-1.6,2.8-2.8,4.8-3.6c2.1-0.8,5.2-1.2,7.2-1.3V18.2z M146.1,23.4c-1.6-1.7-3.5-3-5.8-3.9c-2.3-1-4.9-1.5-7.9-1.5c-3,0-5.6,0.5-7.9,1.5c-2.3,1-4.3,2.3-5.9,4c-1.6,1.7-2.8,3.6-3.6,5.9 c-0.8,2.2-1.3,4.6-1.3,7.1c0,2.3,0.4,4.6,1.3,6.7c0.8,2.1,2.1,4,3.7,5.7c1.6,1.6,3.6,2.9,5.9,3.9c2.3,0.9,4.9,1.4,7.8,1.4 c4,0,7.5-0.9,10.3-2.6c2.9-1.7,5-3.9,6.4-6.7l-9-2.5c-0.5,1.3-1.4,2.3-2.9,3c-1.4,0.8-2.9,1.1-4.5,1.1c-1.9,0-3.7-0.3-5.2-1.5 c-1.5-1.2-2.4-2-2.5-5h25.7c0.1,0,0.2-1.3,0.2-1.9c0-0.6,0.1-1.4,0.1-2c0-2.4-0.4-4.7-1.2-6.9C148.9,27,147.7,25.1,146.1,23.4z M124.8,33c0.2-1,1-4,2.3-5.3c1.3-1.3,3.1-2,5.1-2c2,0,3.7,0.7,5.1,2c1.4,1.3,2.2,3.3,2.4,5.3H124.8z M188,54h11V19h-11V54z M173,54h8V43h-8V54z M108.6,23.2c-1.4-1.6-3.1-2.9-5.1-3.8c-2-0.9-4.1-1.4-6.5-1.4c-2.6,0-4.6,0.6-6.5,1.7 c-1.9,1.1-4.5,2.6-4.5,4.6V19H76v49h10V47.8c3,2,3,3.5,4.9,4.6c1.9,1.1,4.4,1.7,7.1,1.7c2.2,0,4.2-0.5,6.1-1.4 c1.8-0.9,3.5-2.2,4.8-3.8c1.3-1.6,2.4-3.5,3.2-5.7c0.7-2.2,1.1-4.6,1.1-7.2c0-2.5-0.4-4.9-1.2-7C111.1,26.7,110,24.8,108.6,23.2z M101.8,39.4c-0.4,1.1-0.9,2.1-1.6,2.9c-0.7,0.8-1.5,1.5-2.5,2c-0.9,0.5-2,0.8-3.1,0.8c-1.6,0-3.5-0.6-5-1.8 c-1.4-1.2-2.6-2.7-3.6-4.4v-7.1c1-1.5,2.2-2.6,3.5-3.5c1.3-0.9,2.9-1.3,4.4-1.3c1.2,0,2.4,0.2,3.5,0.7c1,0.4,1.9,1.1,2.7,1.9 c0.7,0.8,1.3,1.7,1.7,2.8c0.4,1.1,0.6,2.3,0.6,3.5C102.3,37.1,102.2,38.3,101.8,39.4z"/><path style="fill:#e74039" id="path7" d="m 256.7,2 -38.3,54 13.4,0 38.4,-54 z"/></g></svg>